<?xml version="1.0" encoding="UTF-8"?>
<!DOCTYPE svg PUBLIC "-//W3C//DTD SVG 1.1//EN" "http://www.w3.org/Graphics/SVG/1.1/DTD/svg11.dtd">
<!-- Creator: CorelDRAW 2020 (64-Bit) -->
<svg xmlns="http://www.w3.org/2000/svg" xml:space="preserve" width="151.735mm" height="32.9093mm" version="1.1" style="shape-rendering:geometricPrecision; text-rendering:geometricPrecision; image-rendering:optimizeQuality; fill-rule:evenodd; clip-rule:evenodd"
viewBox="0 0 14748.54 3198.77"
 xmlns:xlink="http://www.w3.org/1999/xlink"
 xmlns:xodm="http://www.corel.com/coreldraw/odm/2003">
 <defs>
  <style type="text/css">
   <![CDATA[
    .str0 {stroke:#2B2A29;stroke-width:19.01;stroke-miterlimit:2.61313}
    .fil3 {fill:none}
    .fil2 {fill:#FEFEFE}
    .fil1 {fill:#EF7F1A}
    .fil5 {fill:#EC6C1E}
    .fil0 {fill:#163C81}
    .fil6 {fill:#2B2A29;fill-rule:nonzero}
    .fil4 {fill:#EC6C1E;fill-rule:nonzero}
   ]]>
  </style>
   <clipPath id="id0">
    <path d="M1351.38 0c746.32,0 1351.32,607.26 1351.32,1356.3 0,749.04 -605,1356.25 -1351.32,1356.25 -746.33,0 -1351.38,-607.21 -1351.38,-1356.25 0,-749.04 605.05,-1356.3 1351.38,-1356.3z"/>
   </clipPath>
 </defs>
 <g id="Layer_x0020_1">
  <metadata id="CorelCorpID_0Corel-Layer"/>
  <path class="fil0" d="M6099.76 3020.91l-108.54 0 49.47 -236.27c3.82,-16.44 5.79,-30.75 5.79,-43.12 0,-29.64 -13.05,-44.45 -39.02,-44.45 -22.04,0 -42.09,13.71 -60.18,41.24 -17.97,27.55 -32.24,65.84 -42.58,115.11l-35.32 167.48 -108.54 0 85.54 -404.62 82.94 0 -7.62 75.1 2.21 0c35.07,-54.97 77.66,-82.51 127.99,-82.51 33.1,0 58.83,10.14 76.91,30.27 18.21,20.13 27.2,48.78 27.2,86.21 0,17.66 -2.71,39.28 -8.24,65.09l-48.01 230.47zm257.83 -108.94c13.16,-36.93 24.24,-63.85 33.22,-80.65l107.07 -215.03 116.42 0 -217.81 404.62 -116.43 0 -49.72 -404.62 106.33 0 16.24 212.07c1.73,32.11 2.46,60.03 2.46,83.61l2.23 0zm465.04 -224.54c-21.16,0 -41.1,9.64 -59.81,28.91 -18.83,19.26 -31.01,42.73 -36.79,70.4l16.23 0c37.18,0 66.21,-5.81 87.01,-17.54 20.8,-11.62 31.26,-27.42 31.26,-47.42 0,-22.86 -12.67,-34.34 -37.91,-34.34zm-59.07 340.89c-50.58,0 -89.71,-13.59 -117.52,-40.87 -27.94,-27.29 -41.84,-65.72 -41.84,-115.49 0,-49.9 9.85,-95.47 29.67,-136.59 19.94,-41.13 46.76,-72.5 80.6,-94.13 33.97,-21.61 72.24,-32.36 115.06,-32.36 42.47,0 75.69,9.76 99.44,29.39 23.88,19.64 35.69,46.69 35.69,80.91 0,44.95 -20.05,79.79 -60.19,104.25 -40.11,24.45 -97.46,36.67 -171.92,36.67l-18.46 0 -0.73 7.67 0 7.15c0,22.11 6.27,39.4 18.57,52.13 12.42,12.72 30.15,19.02 53.16,19.02 20.93,0 40,-2.35 56.98,-6.92 17.11,-4.58 37.79,-12.6 62.02,-24.21l0 82.26c-41.34,20.75 -88.23,31.12 -140.53,31.12zm518.47 -140.8c0,45.33 -15.02,80.16 -44.92,104.5 -29.91,24.2 -71.64,36.3 -124.91,36.3 -25.73,0 -48.12,-1.86 -67.32,-5.43 -19.07,-3.58 -36.92,-9.63 -53.53,-18.16l0 -89.79c37.77,21.74 76.17,32.61 115.06,32.61 19.21,0 34.95,-3.95 47.26,-11.73 12.18,-7.79 18.34,-18.53 18.34,-32 0,-10.37 -4.43,-19.63 -13.29,-27.91 -8.87,-8.15 -24.62,-18.54 -47.26,-31.12 -29.04,-16.31 -49.36,-32.73 -60.92,-49.04 -11.56,-16.18 -17.35,-35.45 -17.35,-57.68 0,-41 13.3,-72.74 39.88,-95.35 26.57,-22.6 64.48,-33.84 113.7,-33.84 48.36,0 91.93,11.36 130.94,34.21l-35.68 77.69c-33.73,-20.26 -64.73,-30.38 -93.04,-30.38 -13.66,0 -24.74,3.09 -33.23,9.26 -8.37,6.17 -12.55,14.58 -12.55,25.07 0,9.39 3.82,17.66 11.57,24.71 7.63,7.16 22.04,16.18 43.2,27.05 29.54,15.19 50.95,31.75 64.24,49.52 13.17,17.91 19.82,38.41 19.82,61.51zm235.79 52.62c15.63,0 35.07,-4.21 58.32,-12.72l0 81.64c-26.57,12.85 -58.57,19.26 -95.87,19.26 -36.05,0 -62.51,-7.66 -79.49,-22.85 -16.85,-15.19 -25.35,-38.66 -25.35,-70.52 0,-12.11 1.35,-25.56 4.31,-40.51l41.47 -195.15 -54.89 0 10.47 -53.24 70.76 -30.5 47.5 -85.23 70.03 0 -17.73 85.97 102.02 0 -17.96 83 -101.66 0 -41.47 194.9c-1.48,7.29 -2.22,13.59 -2.22,19.14 0,17.91 10.59,26.81 31.76,26.81zm602.51 -87.45l-178.81 0 -88.36 168.22 -68.18 0 288.1 -529.12 62.76 0 66.33 529.12 -61.28 0 -20.56 -168.22zm-6.52 -56.32l-12.55 -108.32c-5.78,-43.22 -9.36,-85.48 -10.47,-126.85 -8.97,21.36 -18.57,42.48 -29.03,63.47 -10.47,21 -40.49,78.19 -89.96,171.69l142.01 0zm386.18 224.54l53.28 -250.36c4.8,-25.07 7.27,-42.49 7.27,-52.13 0,-15.19 -4.32,-27.29 -12.8,-36.56 -8.5,-9.14 -22.15,-13.71 -40.98,-13.71 -21.29,0 -42.21,7.29 -62.52,21.74 -20.3,14.44 -38.15,35.08 -53.65,61.88 -15.51,26.68 -27.32,59.17 -35.2,97.34l-36.43 171.8 -60.54 0 84.29 -396.47 50.21 0 -8.01 73.24 3.58 0c23.13,-29.39 45.41,-50.15 66.94,-62.37 21.53,-12.23 43.81,-18.28 66.82,-18.28 30.52,0 54.65,8.4 72.37,25.19 17.59,16.67 26.45,40.14 26.45,70.4 0,19.02 -2.7,40.77 -8.24,65.08l-51.55 243.2 -61.28 0zm198.63 -396.47l60.54 0 26.71 197.12c2.46,16.67 4.8,41.13 7.01,73.62 2.34,32.36 3.45,58.54 3.45,78.3l2.22 0c8.37,-21 18.82,-45.08 31.38,-72.38 12.43,-27.18 21.67,-46.06 27.69,-56.44l117.16 -220.22 64.23 0 -250.93 463.65c-22.39,41.5 -44.54,70.29 -66.33,86.46 -21.9,16.18 -48.24,24.21 -79,24.21 -17.35,0 -34.09,-2.47 -50.46,-7.54l0 -48.65c15.13,4.32 30.89,6.54 47.26,6.54 19.69,0 36.55,-6.06 50.57,-18.28 14.15,-12.23 27.69,-30.26 40.98,-54.1l27.32 -49.14 -59.8 -403.15zm448.06 354.23c13.3,0 30.52,-3.1 51.93,-9.4l0 46.69c-8.13,3.46 -18.21,6.3 -30.27,8.77 -12.06,2.35 -21.67,3.58 -28.8,3.58 -30.02,0 -53.04,-7.15 -69.04,-21.49 -16,-14.44 -23.99,-35.82 -23.99,-64.34 0,-15.82 2.08,-33.97 6.51,-54.23l45.78 -217.87 -62.02 0 5.04 -26.44 66.7 -28.16 45.04 -82.51 35.32 0 -19.82 91.16 98.82 0 -9.48 45.95 -98.33 0 -46.52 218.49c-4.3,21 -6.52,36.93 -6.52,47.8 0,13.58 3.45,23.96 10.46,31.12 7.02,7.28 16.75,10.88 29.17,10.88zm178.81 42.23l-60.55 0 84.3 -396.47 60.66 0 -84.42 396.47zm40.74 -498c0,-13.45 3.81,-24.57 11.56,-33.1 7.64,-8.52 17.61,-12.85 29.92,-12.85 21.16,0 31.75,10.87 31.75,32.61 0,13.22 -4.06,24.46 -12.06,33.6 -8.12,9.13 -17.35,13.71 -27.94,13.71 -9.6,0 -17.59,-2.84 -23.87,-8.77 -6.28,-5.93 -9.35,-14.34 -9.35,-25.2zm315.77 498l53.42 -250.36c4.31,-22.73 6.4,-38.91 6.4,-48.91 0,-16.81 -3.7,-30.02 -11.08,-39.4 -7.5,-9.38 -20.18,-14.08 -38.27,-14.08 -20.19,0 -39.87,7.29 -58.94,21.74 -19.09,14.44 -35.94,35.08 -50.47,62 -14.52,26.93 -25.85,59.29 -33.72,97.21l-36.42 171.8 -60.55 0 84.29 -396.47 50.21 0 -8.01 73.24 3.58 0c20.93,-28.65 41.84,-49.28 62.64,-61.89 20.8,-12.46 42.21,-18.77 64.37,-18.77 27.07,0 48,7.79 62.64,23.47 14.76,15.68 23.39,37.55 25.96,65.58l2.96 0c20.67,-30.14 42.7,-52.62 65.96,-67.18 23.26,-14.58 46.88,-21.87 70.63,-21.87 30.52,0 54.15,8.15 70.89,24.58 16.74,16.43 25.11,40.26 25.11,71.64 0,16.43 -2.71,37.92 -8,64.46l-51.93 243.2 -61.28 0 53.41 -250.36c4.8,-25.07 7.12,-42.74 7.12,-52.86 0,-14.95 -4.05,-26.92 -12.42,-35.95 -8.24,-9.01 -21.3,-13.59 -39.13,-13.59 -19.44,0 -38.65,7.05 -57.6,21 -19.07,13.96 -35.68,33.84 -49.95,59.53 -14.29,25.69 -25.23,56.07 -32.62,91.27l-38.64 180.95 -60.56 0zm570.28 7.41c-44.19,0 -78.89,-13.21 -104.11,-39.52 -25.22,-26.31 -37.9,-62.74 -37.9,-109.3 0,-45.33 8.98,-88.81 26.83,-130.55 17.95,-41.64 41.71,-74 71.25,-97.21 29.54,-23.09 62.14,-34.71 97.71,-34.71 36.79,0 64.37,8.03 82.94,24.09 18.47,16.06 27.69,38.41 27.69,67.07 0,43.48 -19.94,77.57 -59.81,102.26 -39.87,24.71 -96.98,37.05 -171.3,37.05l-11.81 0 -1.48 29.03c0,31.61 7.38,56.32 22.14,73.98 14.77,17.78 37.66,26.68 68.67,26.68 15.13,0 30.76,-2.23 46.76,-6.55 16,-4.33 35.82,-12.23 59.69,-23.84l0 52.88c-22.65,10.61 -42.58,18.02 -59.93,22.35 -17.23,4.21 -36.43,6.3 -57.35,6.3zm50.2 -359.41c-24.85,0 -47.99,11.36 -69.77,33.96 -21.78,22.61 -38.39,53.98 -49.97,94.24l4.32 0c54.76,0 96.85,-7.16 126.02,-21.49 29.16,-14.33 43.81,-35.08 43.81,-62.25 0,-12.85 -4.43,-23.35 -13.17,-31.86 -8.74,-8.41 -22.51,-12.61 -41.23,-12.61zm241.59 266.05l2.82 8.27c-27.2,56.7 -59.55,114.49 -97.35,173.3l-46.51 0c30.27,-68.92 54.76,-129.44 73.59,-181.57l67.45 0zm557.35 -82.26l-178.82 0 -88.36 168.22 -68.18 0 288.1 -529.12 62.76 0 66.33 529.12 -61.28 0 -20.55 -168.22zm-6.53 -56.32l-12.55 -108.32c-5.78,-43.22 -9.36,-85.48 -10.46,-126.85 -8.98,21.36 -18.58,42.48 -29.04,63.47 -10.46,21 -40.49,78.19 -89.96,171.69l142.01 0zm386.18 224.54l53.28 -250.36c4.8,-25.07 7.26,-42.49 7.26,-52.13 0,-15.19 -4.32,-27.29 -12.8,-36.56 -8.5,-9.14 -22.15,-13.71 -40.98,-13.71 -21.29,0 -42.21,7.29 -62.52,21.74 -20.3,14.44 -38.15,35.08 -53.65,61.88 -15.5,26.68 -27.32,59.17 -35.2,97.34l-36.43 171.8 -60.54 0 84.29 -396.47 50.21 0 -8.01 73.24 3.58 0c23.13,-29.39 45.41,-50.15 66.94,-62.37 21.53,-12.23 43.81,-18.28 66.82,-18.28 30.52,0 54.65,8.4 72.37,25.19 17.59,16.67 26.45,40.14 26.45,70.4 0,19.02 -2.69,40.77 -8.24,65.08l-51.55 243.2 -61.28 0zm198.63 -396.47l60.55 0 26.7 197.12c2.46,16.67 4.8,41.13 7.01,73.62 2.34,32.36 3.45,58.54 3.45,78.3l2.22 0c8.37,-21 18.83,-45.08 31.38,-72.38 12.44,-27.18 21.67,-46.06 27.69,-56.44l117.16 -220.22 64.23 0 -250.93 463.65c-22.39,41.5 -44.54,70.29 -66.33,86.46 -21.9,16.18 -48.24,24.21 -79,24.21 -17.35,0 -34.09,-2.47 -50.46,-7.54l0 -48.65c15.13,4.32 30.9,6.54 47.26,6.54 19.69,0 36.55,-6.06 50.58,-18.28 14.14,-12.23 27.68,-30.26 40.97,-54.1l27.32 -49.14 -59.8 -403.15zm605.34 396.47l-11.58 -217.75c-0.98,-22.73 -1.48,-43.48 -1.48,-62.26l0 -56.44 -3.19 0 -18.09 42.74 -29.92 68.3 -104.84 225.41 -72.85 0 -15.5 -396.47 59.07 0 6.51 214.91 0 31.75c0,35.44 -0.98,67.92 -2.82,97.33l2.09 0c11.31,-29.9 27.81,-68.68 49.46,-116.48l106.34 -227.5 65.58 0 13.3 214.91c1.48,40.5 2.21,72.01 2.21,94.73l0 19.15 -0.73 15.19 2.21 0c6.65,-20.75 16.61,-47.06 29.92,-79.05 13.16,-31.86 52.05,-120.29 116.42,-264.93l64.24 0 -182.5 396.47 -73.84 0zm492.5 0l53.28 -250.36c4.43,-22.73 6.52,-38.91 6.52,-48.91 0,-35.69 -17.6,-53.49 -53.03,-53.49 -21.3,0 -42.21,7.17 -62.53,21.37 -20.3,14.2 -38.14,34.83 -53.65,62 -15.5,27.18 -27.31,59.89 -35.19,98.19l-36.43 171.19 -60.55 0 119 -563.21 60.54 0c-4.3,19.76 -8.49,39.04 -12.42,57.56 -3.94,18.65 -8.13,37.42 -12.31,56.7 -4.18,19.14 -8.74,39.27 -13.66,60.26 -4.93,21 -10.7,43.86 -17.12,68.43l3.94 0c22.66,-29.65 44.93,-50.88 66.83,-63.74 22.03,-12.71 45.03,-19.14 69.03,-19.14 31.51,0 55.87,8.65 73.11,26.07 17.1,17.41 25.71,41.99 25.71,73.86 0,14.94 -2.7,34.94 -8.25,60.01 -9.35,46.58 -26.83,127.6 -52.29,243.2l-60.55 0zm340.64 7.41c-44.19,0 -78.89,-13.21 -104.11,-39.52 -25.22,-26.31 -37.9,-62.74 -37.9,-109.3 0,-45.33 8.98,-88.81 26.83,-130.55 17.96,-41.64 41.71,-74 71.25,-97.21 29.54,-23.09 62.14,-34.71 97.72,-34.71 36.79,0 64.36,8.03 82.94,24.09 18.46,16.06 27.68,38.41 27.68,67.07 0,43.48 -19.94,77.57 -59.81,102.26 -39.87,24.71 -96.98,37.05 -171.3,37.05l-11.81 0 -1.48 29.03c0,31.61 7.38,56.32 22.14,73.98 14.77,17.78 37.66,26.68 68.67,26.68 15.13,0 30.76,-2.23 46.76,-6.55 16,-4.33 35.82,-12.23 59.69,-23.84l0 52.88c-22.65,10.61 -42.58,18.02 -59.93,22.35 -17.23,4.21 -36.43,6.3 -57.35,6.3zm50.21 -359.41c-24.86,0 -48,11.36 -69.78,33.96 -21.78,22.61 -38.39,53.98 -49.97,94.24l4.32 0c54.76,0 96.85,-7.16 126.02,-21.49 29.16,-14.33 43.81,-35.08 43.81,-62.25 0,-12.85 -4.43,-23.35 -13.17,-31.86 -8.74,-8.41 -22.51,-12.61 -41.22,-12.61zm407.71 -51.88c16.61,0 31.01,1.73 43.32,5.06l-13.05 54.47c-12.67,-3.09 -25.35,-4.69 -37.78,-4.69 -21.91,0 -42.46,7.29 -61.53,21.73 -19.07,14.45 -35.82,34.47 -50.09,60.15 -14.27,25.7 -24.86,54.23 -31.51,85.6l-38.64 181.56 -60.55 0 84.3 -396.47 50.21 0 -8.01 73.24 3.58 0c17.34,-22.85 31.63,-39.29 42.94,-49.41 11.32,-10.01 23.13,-17.66 35.57,-23.1 12.31,-5.43 26.1,-8.15 41.23,-8.15zm183.85 411.29c-44.19,0 -78.89,-13.21 -104.12,-39.52 -25.21,-26.31 -37.89,-62.74 -37.89,-109.3 0,-45.33 8.98,-88.81 26.83,-130.55 17.95,-41.64 41.71,-74 71.25,-97.21 29.54,-23.09 62.14,-34.71 97.71,-34.71 36.79,0 64.37,8.03 82.94,24.09 18.47,16.06 27.69,38.41 27.69,67.07 0,43.48 -19.94,77.57 -59.81,102.26 -39.87,24.71 -96.98,37.05 -171.3,37.05l-11.82 0 -1.47 29.03c0,31.61 7.38,56.32 22.14,73.98 14.77,17.78 37.66,26.68 68.67,26.68 15.13,0 30.76,-2.23 46.76,-6.55 16,-4.33 35.82,-12.23 59.69,-23.84l0 52.88c-22.65,10.61 -42.58,18.02 -59.93,22.35 -17.23,4.21 -36.43,6.3 -57.35,6.3zm50.2 -359.41c-24.85,0 -47.99,11.36 -69.77,33.96 -21.78,22.61 -38.39,53.98 -49.97,94.24l4.31 0c54.77,0 96.86,-7.16 126.03,-21.49 29.16,-14.33 43.81,-35.08 43.81,-62.25 0,-12.85 -4.43,-23.35 -13.17,-31.86 -8.74,-8.41 -22.52,-12.61 -41.23,-12.61z"/>
  <path class="fil0" d="M5411.9 2689.02c-21.16,0 -41.1,9.63 -59.81,28.9 -18.83,19.26 -31.01,42.73 -36.79,70.4l16.24 0c37.17,0 66.2,-5.8 87,-17.53 20.8,-11.62 31.26,-27.42 31.26,-47.43 0,-22.85 -12.67,-34.33 -37.91,-34.33zm-59.07 340.89c-50.58,0 -89.71,-13.59 -117.52,-40.87 -27.94,-27.3 -41.83,-65.72 -41.83,-115.49 0,-49.9 9.84,-95.48 29.66,-136.6 19.94,-41.13 46.76,-72.49 80.6,-94.12 33.97,-21.62 72.24,-32.36 115.06,-32.36 42.47,0 75.69,9.76 99.44,29.39 23.88,19.63 35.69,46.69 35.69,80.91 0,44.95 -20.05,79.78 -60.18,104.24 -40.11,24.46 -97.47,36.68 -171.93,36.68l-18.46 0 -0.73 7.66 0 7.16c0,22.11 6.28,39.4 18.57,52.12 12.43,12.72 30.15,19.02 53.17,19.02 20.92,0 39.99,-2.34 56.98,-6.91 17.1,-4.58 37.78,-12.6 62.01,-24.21l0 82.25c-41.34,20.76 -88.23,31.13 -140.53,31.13z"/>
  <path class="fil1" d="M5326.64 2408.95c212.88,0 385.45,173.21 385.45,386.86 0,213.65 -172.58,386.85 -385.45,386.85 -212.88,0 -385.45,-173.2 -385.45,-386.85 0,-213.65 172.58,-386.86 385.45,-386.86zm0 67.33c175.83,0 318.38,143.06 318.38,319.53 0,176.47 -142.54,319.52 -318.38,319.52 -175.82,0 -318.37,-143.06 -318.37,-319.52 0,-176.48 142.54,-319.53 318.37,-319.53z"/>
  <path class="fil0" d="M1351.38 0c746.32,0 1351.32,607.26 1351.32,1356.3 0,749.04 -605,1356.25 -1351.32,1356.25 -746.33,0 -1351.38,-607.21 -1351.38,-1356.25 0,-749.04 605.05,-1356.3 1351.38,-1356.3z"/>
  <g style="clip-path:url(#id0)">
   <g id="_2311487724416">
    <path id="1" class="fil2" d="M1795.66 1619.55c-114.03,64.31 -190.38,-139.97 -202.56,-261.98 -12.85,-257.64 41.21,-301.96 143.13,-444.45l-340.04 -10.27c214.38,563.87 -719.51,711.59 -688.94,42.93 -224.29,41.22 -355.06,277.46 -417.94,527.96 -44.58,177.54 -145.58,673.77 -105.46,851.67l225.64 7.81c40.44,-81.39 97.82,-515.32 510.64,-493.66 392.15,20.6 439.67,328.45 498.97,520.81 63.88,1.74 193.51,22.15 244.02,-15.61l31.06 -234.98c152.95,81.49 381.5,273.96 626.21,-115.69 156.03,-248.45 173.5,-511.01 37.04,-778.34 -456.86,-894.76 -1002.14,139.7 -561.77,403.79z"/>
   </g>
  </g>
  <path class="fil3" d="M1351.38 0c746.32,0 1351.32,607.26 1351.32,1356.3 0,749.04 -605,1356.25 -1351.32,1356.25 -746.33,0 -1351.38,-607.21 -1351.38,-1356.25 0,-749.04 605.05,-1356.3 1351.38,-1356.3z"/>
  <polygon class="fil0" points="3849.3,997.42 3418.95,997.42 3418.95,1298.21 3814.44,1298.21 3814.44,1522.05 3418.95,1522.05 3418.95,1997.67 3143.64,1997.67 3143.64,773.58 3849.3,773.58 "/>
  <path class="fil0" d="M5008.72 1467.26c0,367.49 -170.75,551.38 -511.91,551.38 -331.36,0 -496.86,-179.54 -496.86,-538.56l0 -706.5 275.3 0 0 710.25c0,197.89 76.92,296.98 231.11,296.98 151.31,0 227.12,-95.6 227.12,-286.75l0 -720.48 275.25 0 0 693.67z"/>
  <path class="fil0" d="M6243.82 1997.67l-277.07 0 -503.23 -769.1c-29.3,-44.92 -49.95,-78.72 -61.26,-101.43l-3.18 0c4.34,43.14 6.67,108.98 6.67,197.89l0 672.64 -259.59 0 0 -1224.08 296.21 0 484.03 745.22c22.07,33.56 42.43,66.76 61.26,99.96l3.23 0c-4.39,-28.54 -6.72,-84.5 -6.72,-168.14l0 -677.04 259.65 0 0 1224.08z"/>
  <path class="fil0" d="M6395.02 1997.67l0 -1224.08 432.07 0c433.28,0 649.9,198.8 649.9,596.6 0,190.59 -59.24,343.01 -177.43,456.71 -118.18,113.95 -275.55,170.77 -472.47,170.77l-432.07 0zm275.31 -1000.24l0 776.39 135.86 0c119.09,0 212.26,-35.83 279.94,-107.5 67.68,-71.72 101.61,-169.66 101.61,-292.93 0,-116.84 -33.68,-208.69 -100.76,-275.7 -67.07,-66.76 -161.16,-100.26 -282.52,-100.26l-134.14 0z"/>
  <polygon class="fil0" points="8483.19,1997.67 7500.52,1997.67 7500.52,1838.8 8126.02,997.42 7545.83,997.42 7545.83,773.58 8481.42,773.58 8481.42,927.47 7869.91,1773.81 8483.19,1773.81 "/>
  <path class="fil4" d="M8824.29 1997.67l0 -1224.08 443.99 0c136.22,0 240.75,25.09 313.89,75.22 73.18,49.82 109.8,120.33 109.8,211.26 0,66.15 -22.38,123.89 -66.82,173.41 -44.39,49.26 -101.01,83.68 -170.46,103.2l0 3.5c86.87,10.75 156.27,42.84 208.23,96.46 51.97,53.32 77.83,118.61 77.83,195.56 0,112.23 -40.09,201.09 -119.94,266.98 -80.15,65.54 -189.34,98.49 -327.52,98.49l-468.99 0zm275.31 -1021.23l0 290.3 120.5 0c56.62,0 101.31,-13.69 133.83,-41.42 32.53,-27.67 48.79,-65.54 48.79,-113.95 0,-90.03 -66.77,-134.93 -200.36,-134.93l-102.77 0zm0 494.87l0 323.49 148.63 0c63.64,0 113.29,-14.84 149.3,-44.55 36,-29.76 53.98,-70.26 53.98,-121.56 0,-48.96 -17.73,-87.43 -53.13,-115.41 -35.46,-27.98 -84.8,-41.97 -148.38,-41.97l-150.4 0z"/>
  <polygon class="fil4" points="11924.78,1997.67 10942.11,1997.67 10942.11,1838.8 11567.61,997.42 10987.41,997.42 10987.41,773.58 11923.01,773.58 11923.01,927.47 11311.5,1773.81 11924.78,1773.81 "/>
  <path class="fil4" d="M14260.91 1997.67l-315.34 0 -189.9 -315.03c-13.94,-23.93 -27.58,-45.22 -40.66,-64.12 -13.08,-18.65 -26.11,-34.72 -39.49,-48.1 -13.34,-13.38 -27.27,-23.62 -41.82,-30.62 -14.25,-7.24 -30.21,-10.74 -47.03,-10.74l-74.04 0 0 468.62 -275.3 0 0 -1224.08 435.55 0c296.21,0 444.29,111.06 444.29,332.87 0,42.84 -6.37,82.16 -19.45,118.31 -13.08,36.14 -31.67,68.78 -55.45,97.63 -23.83,29.14 -52.58,54.18 -86.26,75.16 -33.68,20.99 -71.11,37.62 -112.67,49.57l0 3.5c18.33,5.53 35.76,14.85 52.88,27.68 16.83,12.82 33.39,27.67 49.35,44.91 15.71,16.88 31.06,35.23 45.3,55.04 14.54,19.52 27.88,38.78 39.79,57.44l230.25 361.97zm-748.27 -1017.73l0 340.98 119.04 0c58.94,0 106.26,-17.18 141.97,-51.29 36.31,-34.67 54.34,-77.81 54.34,-129.11 0,-106.95 -63.89,-160.57 -191.37,-160.57l-123.99 0z"/>
  <path class="fil5" d="M10897.64 1997.64l-297.27 0c-101.21,-306.83 -184.93,-589.62 -283.08,-895.57 -9.59,-30.91 -16.55,-67.64 -20.63,-110.2l-6.68 0c-2.91,35.86 -9.88,71.42 -21.5,106.7 -96.75,300.84 -181.6,590.74 -277.1,899.08l-298.02 0 444.12 -1224.41 326.19 0 433.96 1224.41z"/>
  <path class="fil5" d="M13181.92 1997.64l-297.26 0c-101.22,-306.83 -184.93,-589.62 -283.09,-895.57 -9.58,-30.91 -16.55,-67.64 -20.62,-110.2l-6.69 0c-2.9,35.86 -9.88,71.42 -21.49,106.7 -96.76,300.84 -181.6,590.74 -277.11,899.08l-298.02 0 444.12 -1224.41 326.19 0 433.96 1224.41z"/>
  <path class="fil0" d="M1726.26 1987.62c30.68,37.67 -2.85,4.36 32.3,33.31 297.17,244.65 426.57,-335.79 101.42,-201.93 -79.01,32.53 -97.02,83.1 -133.72,168.62z"/>
  <path class="fil0" d="M1776.91 1092.93c51.69,1.43 92.49,44.61 91.07,96.49 -1.43,51.88 -44.45,92.83 -96.14,91.4 -51.75,-1.37 -92.49,-44.61 -91.12,-96.49 1.42,-51.88 44.51,-92.83 96.2,-91.4z"/>
  <path class="fil0" d="M1063.7 638.51c222.24,0 402.38,180.8 402.38,403.84 0,223.05 -180.14,403.84 -402.38,403.84 -222.24,0 -402.38,-180.79 -402.38,-403.84 0,-223.04 180.14,-403.84 402.38,-403.84z"/>
  <path class="fil5" d="M1063.7 823.6c130.37,0 236.04,106.05 236.04,236.9 0,130.84 -105.67,236.89 -236.04,236.89 -130.37,0 -236.04,-106.05 -236.04,-236.89 0,-130.85 105.67,-236.9 236.04,-236.9z"/>
  <path class="fil5" d="M1063.7 425.29c86.24,0 156.19,70.14 156.19,156.69 0,86.55 -69.95,156.75 -156.19,156.75 -86.24,0 -156.12,-70.21 -156.12,-156.75 0,-86.55 69.89,-156.69 156.12,-156.69z"/>
  <path class="fil5" d="M1063.7 126.44c50.15,0 90.76,40.76 90.76,91.09 0,50.32 -40.61,91.08 -90.76,91.08 -50.15,0 -90.76,-40.76 -90.76,-91.08 0,-50.33 40.61,-91.09 90.76,-91.09z"/>
  <path class="fil3 str0" d="M14539.45 343.43c110.22,0 199.59,89.37 199.59,199.58 0,110.22 -89.37,199.59 -199.59,199.59 -110.21,0 -199.57,-89.37 -199.57,-199.59 0,-110.21 89.36,-199.58 199.57,-199.58z"/>
  <path class="fil6" d="M14462.83 630.19l0 -174.3 77.22 0c15.5,0 27.31,1.63 35.44,4.7 8.06,3.14 14.47,8.67 19.32,16.59 4.84,7.92 7.23,16.66 7.23,26.22 0,12.35 -4.02,22.8 -12.01,31.27 -7.99,8.53 -20.34,13.85 -37.07,16.17 6.14,2.94 10.79,5.8 13.93,8.67 6.76,6.15 13.1,13.93 19.12,23.22l30.1 47.44 -28.81 0 -23.01 -36.26c-6.69,-10.51 -12.29,-18.5 -16.59,-24.1 -4.44,-5.53 -8.33,-9.35 -11.74,-11.61 -3.41,-2.19 -6.97,-3.75 -10.52,-4.65 -2.6,-0.54 -6.82,-0.82 -12.83,-0.82l-26.7 0 0 77.42 -23.08 0zm23.08 -97.36l49.5 0c10.58,0 18.77,-1.09 24.64,-3.28 5.95,-2.19 10.45,-5.67 13.52,-10.45 3.07,-4.85 4.58,-10.03 4.58,-15.63 0,-8.26 -2.94,-15.1 -8.87,-20.35 -6.01,-5.33 -15.37,-7.98 -28.27,-7.98l-55.1 0 0 57.69z"/>
 </g>
</svg>
